# xmcd
#
# Track frame offsets:
#	150
#	12962
#	22945
#	35859
#	46535
#	55650
#	68093
#	85528
#	98759
#	109034
#	142217
#	153530
#	166802
#
# Disc length: 2448 seconds
#
# Revision: 6
# Processed by: cddbd v1.5.1PL2 Copyright (c) Steve Scherf et al.
# Submitted via: EasyCDDAExtractor 9.0.0.1
#
DISCID=99098e0d
DTITLE=Elvis Presley - The Original Elvis Presley Collection 38 - Elvis Sings 
DTITLE=The Wonderful World Of Christmas
DYEAR=1971
DGENRE=
TTITLE0=Oh Come, All Ye Faithful
TTITLE1=The First Noel
TTITLE2=On A Snowy Christmas Night
TTITLE3=Winter Wonderland
TTITLE4=The Wonderful World Of Christmas
TTITLE5=It Won't Seem Like Christmas (Without You)
TTITLE6=I'll Be Home On Christmas Day
TTITLE7=If I Get Home On Christmas Day
TTITLE8=Holly Leaves And Christmas Trees
TTITLE9=Merry Christmas Baby
TTITLE10=Silver Bells
TTITLE11=If Every Day Was Like Christmas
TTITLE12=I'll Be Home On Christmas Day
EXTD=Elvis sings The Wonderful World Of Christmas\n YEAR: 1971
EXTT0=
EXTT1=
EXTT2=
EXTT3=
EXTT4=
EXTT5=
EXTT6=
EXTT7=
EXTT8=
EXTT9=
EXTT10=
EXTT11=
EXTT12=
PLAYORDER=
